# xmcd
#
# Track frame offsets:
#	150
#	9384
#	29967
#	45714
#	70142
#	92476
#	110640
#	130079
#	146298
#	166870
#	180899
#	198752
#	219759
#
# Disc length: 3439 seconds
#
# Revision: 2
# Processed by: cddbd v1.5.2PL0 Copyright (c) Steve Scherf et al.
# Submitted via: audiograbber 1.83.01
#
DISCID=a40d6d0d
DTITLE=Ol. - 2001 - Ol.
DYEAR=2001
DGENRE=Chanson
TTITLE0=Intro
TTITLE1=Rien n'est à moi ni personne
TTITLE2=Julia
TTITLE3=Une trève
TTITLE4=Adieu mais
TTITLE5=Cool seulement
TTITLE6=J'aime
TTITLE7=J'ai deux amours
TTITLE8=Samory Toure
TTITLE9=Ngaya Duwaan Ya Angu
TTITLE10=Saison
TTITLE11=Tout le monde veut vivre
TTITLE12=Mon frère
EXTD=
EXTT0=
EXTT1=
EXTT2=
EXTT3=
EXTT4=
EXTT5=
EXTT6=
EXTT7=
EXTT8=
EXTT9=
EXTT10=
EXTT11=
EXTT12=
PLAYORDER=
